<?xml version="1.0" encoding="UTF-8"?>
<svg id="Camada_2" data-name="Camada 2" xmlns="http://www.w3.org/2000/svg" viewBox="0 0 577.29 460.69">
  <defs>
    <style>
      .cls-1 {
        letter-spacing: -.03em;
      }

      .cls-2 {
        letter-spacing: 0em;
      }

      .cls-3 {
        stroke-width: 0px;
      }

      .cls-4 {
        font-size: 203.19px;
      }

      .cls-4, .cls-5 {
        font-family: UltraCondensedSansSerif, UltraCondensedSansSerif;
      }

      .cls-5 {
        font-size: 48.83px;
        letter-spacing: .08em;
      }
    </style>
  </defs>
  <g id="Group_1_Group_1_Image" data-name="Group 1 + Group 1 Image">
    <g>
      <path class="cls-3" d="m555.17,79.65c-1.8-7.93-5.03-15.23-9.54-22.06-8.17-12.4-19.23-21.18-33.37-26.01-14.45-4.95-29.4-6.71-44.62-5.57-16.19,1.22-32.11,4.05-47.69,8.6-.56.16-1.16.15-1.74.23.49-.36.93-.81,1.47-1.05,8.48-3.87,17.37-6.57,26.35-8.94,17.62-4.66,35.53-5.69,53.59-3.31,14.68,1.95,28.17,6.96,39.96,16,.24.18.6.21.9.31-.15-.3-.26-.63-.46-.89-.21-.28-.51-.51-.79-.75-3.27-2.84-6.91-5.13-10.77-7.1-8.13-4.14-16.77-6.74-25.78-8.27-10.44-1.77-20.93-2.11-31.49-1.35-6.39.46-12.61,1.89-18.86,3.17-7.29,1.49-14.48,3.33-21.42,5.99-16.12,6.17-31.96,12.97-47.29,20.88-12.9,6.65-25.51,13.84-37.57,21.86-15.38,10.23-30.5,20.84-45.74,31.28-1.16.8-2.33,1.58-3.49,2.38-.64.44-1.25.54-1.79-.15-.56-.71-.39-1.33.28-1.87.28-.23.57-.45.86-.67,5.68-4.29,11.34-8.61,17.05-12.87,11.81-8.81,23.57-17.71,35.5-26.36,10.06-7.3,20.18-14.53,30.55-21.39,16.87-11.15,34.84-20.23,53.92-27.23,21.23-7.8,43.17-11.44,65.76-11.56,4.46-.02,8.91.09,13.37.15.03-.05.06-.09.1-.13-.76-.23-1.51-.51-2.29-.68-7.01-1.59-14.16-2.04-21.32-2.26-7-.21-13.91.7-20.78,2.05-12.18,2.38-24.22,5.2-35.81,9.72-18.37,7.19-35.86,16.05-52.42,26.67-15.76,10.09-30.95,20.98-45.95,32.12-13.15,9.77-26.23,19.62-39.34,29.43-1.83,1.37-2.29,1.31-3.61-.54-5.74-8.01-12.13-15.51-18.75-22.82-8.97-9.91-18.76-18.99-29.04-27.57-5.23-4.37-10.75-8.34-16.83-11.5-14.8-7.7-30.68-10.98-47.31-11.15-11.9-.12-23.53,1.68-34.95,4.95-9.18,2.63-18.1,5.92-26.46,10.5-13.67,7.49-26.01,16.72-37.03,27.68-10,9.95-18.07,21.24-24.75,33.53-3.38,6.21-6.33,12.64-8.36,19.41-1.46,4.85-2.78,9.78-3.67,14.75-1,5.61-1.33,11.31-1.06,17.03.38,7.91,1.97,15.47,5.78,22.52,5.17,9.56,13.02,16.2,23.02,20.41,9.11,3.84,18.78,5.02,28.61,5.21,9.48.18,18.84-.97,28.16-2.52,18.49-3.06,36.14-9.01,53.53-15.69,7.59-2.91,14.93-6.48,22.35-9.82,14.3-6.44,28-13.97,41.09-22.53,13.18-8.62,26.19-17.49,39.27-26.26,2.08-1.39,4.1-2.85,6.19-4.21,1.2-.78,1.71-.64,2.48.53.57.87,1.06,1.79,1.64,2.65,3.47,5.22,6.92,10.47,10.44,15.66,4.29,6.3,8.49,12.68,13.02,18.81,4.75,6.42,9.66,12.74,14.84,18.84,4.11,4.84,8.72,9.29,13.14,13.88.4.42.97.68,1.47,1.02.09-.1.18-.21.27-.31-.72-.83-1.42-1.67-2.16-2.49-3.77-4.15-7.59-8.25-11.3-12.44-2.81-3.19-5.65-6.37-8.18-9.77-4.63-6.23-9.15-12.55-13.52-18.97-5.61-8.24-11.02-16.62-16.52-24.93-.7-1.06-1.43-2.09-2.11-3.15-.46-.72-.2-1.3.47-1.72.81-.49,1.11.08,1.46.67.62,1.1,1.3,2.16,1.97,3.23,3.65,5.86,7.31,11.71,10.99,17.55.32.5.83.88,1.25,1.32.1-.09.19-.17.29-.26-.14-.32-.26-.65-.43-.95-4.17-7.06-8.35-14.12-12.52-21.19-.2-.35-.46-.71-.5-1.09-.04-.29.21-.62.33-.93.25.17.57.3.74.53.45.61.81,1.3,1.26,1.91,2.77,3.74,5.6,7.43,8.33,11.19,8.13,11.23,16.51,22.28,25.5,32.85,7.59,8.93,15.52,17.55,24.4,25.27,1.78,1.54,3.66,2.97,5.51,4.43.21.16.54.18.81.26-.13-.25-.26-.49-.41-.73-.04-.07-.13-.12-.2-.18-5.45-4.53-10.23-9.69-14.97-14.94-9.78-10.82-18.57-22.4-27.27-34.04-4.32-5.78-8.17-11.9-12.18-17.91-2.23-3.33-4.37-6.73-6.52-10.12-1.06-1.67-.9-2.3.72-3.5.22-.16.44-.32.67-.48,16.19-11.29,32.42-22.53,49.31-32.8,10.68-6.49,21.43-12.87,32.79-18.14,7.21-3.35,14.66-6.18,21.96-9.36,6.65-2.9,13.52-5.1,20.57-6.82,9.44-2.29,19.01-3.87,28.71-4.65,9.76-.78,19.51-.77,29.22.61,4.73.67,9.47,1.43,14.11,2.53,7.51,1.79,14.31,5.35,20.98,9.07,5.06,2.82,9.19,6.72,11.79,11.88,1.76,3.48,3.08,7.18,4.5,10.82.52,1.32,1.6,1.87,2.74,2.53-.58-2.4-1.37-4.68-2.07-6.99-.12-.37.15-.85.25-1.28.33.22.78.36.97.67,3.3,5.41,5.46,11.23,6.43,17.49.08.54.51,1.14.96,1.49,1.53,1.2,3.13,2.3,4.71,3.44.14.1.29.19.44.28.06-.24.2-.49.18-.72-.11-1.39-.18-2.78-.39-4.16-1.78-11.5-6.36-21.73-14.14-30.58-6.58-7.49-14.68-13.03-23.19-18.05-3.47-2.04-7.21-3.65-10.81-5.5-.4-.2-.69-.63-1.04-.96.46-.06.95-.26,1.35-.15,9.96,2.61,19.06,6.9,27.04,13.39,6.98,5.67,12.76,12.31,17,20.21,3.87,7.19,6.12,14.85,6.69,22.99.58,8.18.03,16.27-2.22,24.16-1.7,5.95-3.85,11.77-5.84,17.64-.63,1.86-1.39,3.68-2.1,5.52.42-.26.63-.61.79-.97,1.71-3.96,3.5-7.88,5.1-11.88,3.18-7.94,5.3-16.12,5.8-24.69.38-6.48.11-12.92-1.32-19.27ZM101.23,54.63c36.52-25.02,75.64-33.29,118.34-17.16,1.66.63,3.13,1.78,4.69,2.69-1.6-.44-3.22-.83-4.8-1.33-43.6-13.82-83.2-4.76-119.91,20.47-15.95,10.96-28.89,24.77-39.18,41.01-.29.44-.62.86-2.18,3.04,11.19-20.84,25.21-36.5,43.04-48.72Zm-39.86,132.49c-3.46-3.11-6.26-6.95-9.32-10.48-.22-.26-.13-.77-.19-1.16.26.1.63.12.76.3,9.05,12.89,21.99,19.49,37.25,22.35.25.05.48.21,2.18.99-12.39-1.51-22.48-4.63-30.68-12Zm179.65-41.07c-34.48,20.74-70.16,38.63-110.75,44.63-5.98.89-12.06,1.18-16.66,1.62-17.54-.74-33.28-2.46-46.23-13.36-.54-.45-.89-1.13-1.33-1.7.6.31,1.23.57,1.79.95,19.8,13.43,41.89,13.47,64.35,10.26,39.6-5.64,74.36-23.25,108.23-42.99.36-.21.85-.2,1.29-.29-.23.3-.39.7-.69.88Zm45.43-40c-.86.65-1.28.55-2.1-.51-3.76-4.85-7.38-9.82-11.3-14.55-7.59-9.17-15.73-17.84-25.28-25.1-7.95-6.05-16.51-11.04-26.02-14.38-2.09-.74-4.01-1.93-6.07-2.74-1.79-.71-3.68-1.16-5.52-1.73-.08.22-.16.43-.24.65,3.73,1.4,7.47,2.77,11.17,4.22,10.56,4.13,20.13,9.89,28.81,17.11,9.6,7.99,17.8,17.25,25.54,26.94,2.51,3.14,4.86,6.4,7.25,9.63,1.26,1.7,1.19,2.34-.54,3.57-9.64,6.86-19.26,13.77-28.99,20.52-5.55,3.85-11.14,7.68-16.97,11.09-11.49,6.73-23,13.4-35.14,18.98-11.87,5.46-23.85,10.63-36.37,14.48-11.44,3.52-23.06,6.17-35.04,7.06-9.03.67-18.04.93-27.03-.41-9.24-1.38-18.08-3.93-26.11-8.76-4.68-2.81-8.62-6.47-11.93-10.77-.13-.17-.26-.34-.39-.51-.11.06-.23.13-.34.2.58,1.02,1.1,2.09,1.75,3.07,4.86,7.25,11.58,12.23,19.68,15.48,7.98,3.2,16.33,4.75,24.88,5.36,9.58.69,19.05-.3,28.49-1.73,14.94-2.27,29.34-6.53,43.32-12.11,13.63-5.43,26.75-11.94,39.6-18.96,12.14-6.63,23.73-14.12,35.18-21.83,9.29-6.27,18.67-12.41,27.55-19.26.55-.43,1.18-1,1.9-.23.57.62.4,1.42-.49,2.07-9.96,7.36-19.96,14.67-30.51,21.19-9.08,5.61-18.11,11.31-27.34,16.66-13.26,7.69-27.12,14.23-41.15,20.45-13.35,5.93-27.21,10.41-41.51,13.47-12.99,2.77-26.13,4.64-39.49,3.96-10.82-.54-21.27-2.64-31-7.5-7.16-3.58-13.26-8.4-17.34-15.38-2.3-3.94-3.66-8.22-4.25-12.71-1.33-9.94-.43-19.67,2.64-29.25,4.16-12.99,11.04-24.47,19.6-35.04,5.95-7.34,12.93-13.65,20.42-19.43,8.25-6.37,17.1-11.82,26.59-16.18,14.18-6.52,28.87-11.33,44.55-12.81,14.86-1.41,29.39.13,43.71,4.21,12.26,3.48,23.23,9.41,33.7,16.4,7.35,4.9,14.22,10.39,20.51,16.53,7.78,7.6,15.26,15.47,20.9,24.83.3.51.67.96,1.01,1.45.71,1.02.63,1.6-.29,2.3Z"/>
      <path class="cls-3" d="m63.2,85.4c5.52-10.02,13.16-18.4,21.6-26,32.75-29.51,71.59-41.97,115.51-37.67,25.04,2.46,47.24,12.32,64.66,30.87-1.21-1.29-2.34-2.67-3.66-3.85-1.42-1.26-2.96-2.4-4.53-3.47-41.85-28.5-86.14-28.52-131.52-10.09-25.39,10.31-46.02,26.96-61.44,49.57-.16.24-.42.4-.64.6l.03.02Z"/>
      <path class="cls-3" d="m60.95,89.66c-1.18,1.8-2.35,3.6-3.53,5.41l.03.03c1.17-1.81,2.33-3.62,3.5-5.43-.06-.04-.13-.08-.19-.13.07.04.13.08.2.13Z"/>
      <path class="cls-3" d="m63.17,85.38c-.34.73-.68,1.46-.07.15-.89,1.15-.39.51.1-.13,0,0-.03-.02-.03-.02Z"/>
      <path class="cls-3" d="m57.43,95.07c-.36.71-.72,1.43-1.09,2.14l.04.04c.36-.71.72-1.43,1.08-2.14,0,0-.03-.03-.03-.03Z"/>
      <path class="cls-3" d="m60.95,89.66c-.06-.3-.11-.61,0,0,.1-.62.05-.31,0,0,0,0,0,0,0,0Z"/>
      <path class="cls-3" d="m56.34,97.21c-.11.26-.22.51-.06.15-.26.3-.08.09.1-.11,0,0-.04-.04-.04-.04Z"/>
    </g>
    <path class="cls-3" d="m530.28,155.89v2.18c-.08,4.27-2.1,7.69-4.69,10.9-.75.93-1.15.96-1.89-.06-4.02-5.58-9.38-8.43-16.38-7.81-3.93.35-5.93,3.91-4,7.13,1.21,2.02,2.85,1.99,4.67.97.6-.34,1.17-.74,1.73-1.16,3.61-2.72,4.46-2.37,7.65.92,7.64,7.87,2.33,18.4-7.2,21.33-4.57,1.4-9.21,2.06-13.95,1.56-3.34-.35-5.25-2.69-6.42-5.58-.85-2.09-.21-3.99,1.42-5.53,2.31-2.18,5.1-2.92,8.04-1.91,1.86.63,3.3,2.47,5.51,2.27,2.86-.26,3.06-2.5,3.19-4.65.12-2.09-1.03-3.62-3.07-3.29-5.2.84-10.62,1.01-15.3,3.91-2.95,1.83-5.19,4.35-5.01,7.99.21,4.4,2.97,7.31,6.56,9.54,1.31.82,2.77,1.34,4.25,1.28,2.25-.09,3.39.81,4.1,2.95,1.47,4.45,3.77,8.63,4.41,13.34.3,2.2-.69,3.54-3,3.72h-.99c-1.39-.11-2.13-1.13-2.74-2.16-4.35-7.35-11.54-11.08-18.68-14.92-2.82-1.51-5.25-3.58-7.7-5.61-2.77-2.29-.81-3.66.91-5.09,1.04-.86,2.14-1.69,3.35-2.27,1.25-.6,1.75-1.49,1.52-2.81-.24-1.36-.79-2.52-2.28-2.86-1.4-.32-2.62.03-3.56,1.15-.34.41-.73.92-.7,1.4.25,4.11-3.14,5.01-5.76,6.51-12.16,6.95-23,4.05-32.53-4.09-.96-.82-.81-1.3.07-2.09,2.63-2.34,5.13-4.93,4.9-8.74-.27-4.55-2.99-7-8.27-7.28-4.63-.25-9.29-.33-13.93-.15-1.43.05-2.88.51-3.01,2.21-.14,1.86.89,3.18,2.69,3.75,1.53.49,2.99.47,4.42-.53,3.09-2.17,6.54-2.2,10.06-1.41,1.36.31,2.6.98,2.95,2.48.61,2.55-1.28,3.86-2.81,5.31-4.95,4.71-11.11,4.54-17.17,3.85-8.64-.99-15.49-5.19-18.82-13.46-2.11-5.23-.9-10.66,1.48-15.72.15-.33.44-.33.69-.09,10.04,9.35,23.5,6.14,32.43-1.88,2.19-1.97,4.12-4.17,5.78-6.62.58-.85,1.79-.97,2.59-1.66,1.54-1.32,1.96-2.79.74-4.51-1.29-1.83-2.85-2.36-4.72-.8-1.04.87-1.85,1.85-2.31,3.23-2.51,7.51-13.26,16.24-23.53,13.24-7.81-2.28-9.71-10.19-3.97-16.38,5.12-5.52,11.33-9.48,17.85-13.04.29-.16.68-.41.91-.14.49.55.46,1.29.38,1.98-.35,2.96-6.12,8.71-9.08,9.12-2.06.28-3.21,1.62-3.66,3.54-.38,1.63.51,2.8,1.79,3.66,1.68,1.14,3.23.51,4.52-.64,3.46-3.09,5.35-7.32,7.76-11.16,3.05-4.86,5.32-10.26,10.14-13.81,5.72-4.21,13.02-2.49,15.35,3.63.53,1.39.24,2.55-1.02,3.43-.54.38-1.09.75-1.54,1.24-.97,1.06-2.38,2.11-1.66,3.71.73,1.61,2.33,2.5,4.09,2.53,1.75.03,2.51-1.38,3.03-2.84,1.84-5.11.89-9.72-2.53-13.88-.33-.41-.63-.76.01-1.15,10.47-6.26,21.47-7.01,32.87-3.02,1.11.39,2.76.83,2.76,2.13,0,1.58-1.67,1.92-3.03,2.36-4.17,1.35-4.8,4.96-5.22,8.62-.73,6.24-.76,12.61-3.11,18.57-2.02,5.14-7.02,8.53-12.54,5.26-1.88-1.11-3.67-.77-4.54,1.51-.82,2.15.66,2.99,2.32,3.61,7.49,2.83,17.85-3.84,19.19-12.13.97-5.97,1.49-11.96,1.88-17.98.33-5.09,5.47-8.22,11.64-7.28,2.09.32,4.06.98,5.98,1.83.32.14.83.42.38.77-3.56,2.79-3.31,6.65-2.94,10.5.64,6.62,1.99,13.21.18,19.88-2.21,8.15-9.25,14.14-17.62,15.45-6.38.99-12.66,1.78-18.99-.05-3.53-1.02-6.79-2.31-9.29-5.28-1.4-1.67-3.24-1.34-4.51.57-1.22,1.83-1.19,3.64.95,4.6,6.57,2.95,13.39,5.09,20.65,5.34,10.5.36,19.92-2.54,27.74-9.78,5.94-5.51,7.12-12.56,6.35-20.23-.38-3.73-1.22-7.34-2.25-10.93-1.1-3.86,2.92-7.64,7.4-6.8,7.05,1.33,10.5,6.63,13.22,12.55,1.43,3.11,2.07,6.46,2.52,9.84.08.63-.22.98-.69,1.34-2.31,1.79-3.57,3.97-2.4,6.97.43,1.11.99,2.3,2.42,2.03,1.6-.31,3.08-1.19,3.41-2.91.49-2.54.59-5.14.74-7.72.05-.79.2-1.65,1.06-1.89.82-.23,1.4.4,1.82,1.02,2.68,3.96,3.4,8.46,3.59,13.1Z"/>
    <text class="cls-4" transform="translate(0 366.01) scale(.97 1)"><tspan class="cls-1" x="0" y="0">F</tspan><tspan class="cls-2" x="58.93" y="0">lau Melo</tspan></text>
    <text class="cls-5" transform="translate(221.22 445.51) scale(1.13 1)"><tspan x="0" y="0">coach</tspan></text>
  </g>
</svg>