<svg width="34" height="34" viewBox="0 0 34 34" fill="none" xmlns="http://www.w3.org/2000/svg">
<g clip-path="url(#clip0_88_114)">
<path d="M0.725664 16.7967C0.724867 19.6534 1.47712 22.4427 2.90751 24.9013L0.588867 33.3014L9.25249 31.0474C11.6487 32.3417 14.3336 33.02 17.0619 33.0201H17.069C26.0757 33.0201 33.4074 25.748 33.4112 16.8095C33.4129 12.4782 31.7145 8.40533 28.6288 5.34112C25.5435 2.27716 21.4403 0.588891 17.0684 0.586914C8.06063 0.586914 0.729516 7.8587 0.725797 16.7967" fill="url(#paint0_linear_88_114)"/>
<path d="M0.142109 16.7913C0.14118 19.7507 0.920391 22.6398 2.40178 25.1864L0 33.8876L8.97427 31.5528C11.447 32.8905 14.231 33.5958 17.0639 33.5969H17.0712C26.401 33.5969 33.996 26.0631 34 16.8047C34.0016 12.3178 32.2421 8.09846 29.0461 4.92447C25.8497 1.75087 21.5997 0.00184496 17.0712 0C7.73978 0 0.145828 7.53271 0.142109 16.7913ZM5.48662 24.7478L5.15153 24.22C3.74292 21.9976 2.99944 19.4294 3.0005 16.7923C3.00342 9.09685 9.3152 2.83597 17.0765 2.83597C20.8351 2.83755 24.3674 4.29138 27.0242 6.92915C29.6808 9.56718 31.1427 13.0739 31.1417 16.8036C31.1383 24.4991 24.8264 30.7608 17.0712 30.7608H17.0656C14.5404 30.7595 12.0639 30.0866 9.90409 28.815L9.39011 28.5126L4.06459 29.898L5.48662 24.7478Z" fill="url(#paint1_linear_88_114)"/>
<path d="M12.8401 9.77159C12.5232 9.07274 12.1897 9.05864 11.8884 9.04639C11.6416 9.03584 11.3595 9.03663 11.0777 9.03663C10.7956 9.03663 10.3372 9.14193 9.94983 9.56166C9.56202 9.98178 8.46924 10.997 8.46924 13.0619C8.46924 15.127 9.98503 17.1226 10.1963 17.4029C10.4079 17.6827 13.1226 22.0557 17.422 23.7381C20.9952 25.1362 21.7223 24.8581 22.4978 24.788C23.2735 24.7181 25.0005 23.773 25.3529 22.7929C25.7055 21.813 25.7055 20.973 25.5998 20.7975C25.4941 20.6226 25.212 20.5176 24.789 20.3078C24.3658 20.0978 22.2863 19.0824 21.8986 18.9424C21.5108 18.8024 21.2288 18.7326 20.9467 19.1528C20.6646 19.5724 19.8546 20.5176 19.6077 20.7975C19.3611 21.078 19.1142 21.113 18.6913 20.903C18.268 20.6924 16.9058 20.2498 15.2896 18.8201C14.0321 17.7076 13.1832 16.3337 12.9364 15.9135C12.6896 15.4939 12.91 15.2664 13.1221 15.0573C13.3121 14.8692 13.5452 14.5672 13.7569 14.3222C13.9678 14.0771 14.0382 13.9022 14.1792 13.6223C14.3204 13.3421 14.2498 13.097 14.1442 12.8871C14.0382 12.6771 13.2162 10.6014 12.8401 9.77159Z" fill="white"/>
</g>
<defs>
<linearGradient id="paint0_linear_88_114" x1="1641.71" y1="3272.03" x2="1641.71" y2="0.586914" gradientUnits="userSpaceOnUse">
<stop stop-color="#1FAF38"/>
<stop offset="1" stop-color="#60D669"/>
</linearGradient>
<linearGradient id="paint1_linear_88_114" x1="1700" y1="3388.76" x2="1700" y2="0" gradientUnits="userSpaceOnUse">
<stop stop-color="#F9F9F9"/>
<stop offset="1" stop-color="white"/>
</linearGradient>
<clipPath id="clip0_88_114">
<rect width="34" height="34" fill="white"/>
</clipPath>
</defs>
</svg>
